<svg width="32" height="32" viewBox="0 0 32 32" fill="none" xmlns="http://www.w3.org/2000/svg">
<g id="ill_wall_flex_multisig_creating_32">
<rect width="32" height="32" rx="16" fill="#868692"/>
<path id="Union" fill-rule="evenodd" clip-rule="evenodd" d="M22.5399 18.4333L25.3305 15.649C25.8177 15.157 26.1249 14.5153 26.2026 13.8273C26.2804 13.1393 26.124 12.4451 25.7588 11.8569L25.8785 11.7435C25.9448 11.6774 25.9974 11.5988 26.0333 11.5123C26.0691 11.4259 26.0876 11.3332 26.0876 11.2395C26.0876 11.1459 26.0691 11.0532 26.0333 10.9667C25.9974 10.8803 25.9448 10.8017 25.8785 10.7356L23.6486 8.49938C23.5825 8.4331 23.5039 8.38051 23.4174 8.34463C23.331 8.30875 23.2383 8.29028 23.1447 8.29028C23.051 8.29028 22.9583 8.30875 22.8719 8.34463C22.7854 8.38051 22.7068 8.4331 22.6407 8.49938L14.8297 16.3104C14.7645 16.393 14.7154 16.487 14.6848 16.5876L13.5698 19.9388C13.5211 20.0614 13.5071 20.195 13.5293 20.325C13.5516 20.455 13.6092 20.5764 13.6958 20.6758C13.831 20.8069 14.0114 20.8813 14.1997 20.8837C14.2857 20.8843 14.3711 20.8694 14.4517 20.8396L17.7966 19.7246C17.9021 19.6896 17.9973 19.629 18.0738 19.5482L24.7069 12.9214C24.8096 13.2154 24.828 13.5322 24.7601 13.8361C24.6922 14.14 24.5407 14.4188 24.3226 14.6411L21.532 17.4254C21.4659 17.4916 21.4134 17.5701 21.3776 17.6566C21.3417 17.7431 21.3233 17.8357 21.3233 17.9293C21.3233 18.0229 21.3417 18.1156 21.3776 18.2021C21.4134 18.2885 21.4659 18.3671 21.532 18.4333C21.5982 18.4994 21.6768 18.5519 21.7633 18.5878C21.8497 18.6236 21.9424 18.642 22.036 18.642C22.1296 18.642 22.2222 18.6236 22.3087 18.5878C22.3952 18.5519 22.4737 18.4994 22.5399 18.4333ZM25.7011 23.08C25.7011 22.7321 25.419 22.45 25.0711 22.45H6.40794C6.06004 22.45 5.77802 22.7321 5.77802 23.08C5.77802 23.4279 6.06004 23.7099 6.40794 23.7099H25.0711C25.419 23.7099 25.7011 23.4279 25.7011 23.08Z" fill="white"/>
<path id="Vector" d="M10.4835 18.8183L15.4371 13.8704L17.4998 11.7962L17.6091 11.6927C17.6696 11.6324 17.7176 11.5606 17.7503 11.4817C17.7831 11.4027 17.8 11.3181 17.8 11.2326C17.8 11.1472 17.7831 11.0625 17.7503 10.9836C17.7176 10.9046 17.6696 10.8329 17.6091 10.7726L15.5732 8.73094C15.5128 8.67043 15.4411 8.62242 15.3622 8.58966C15.2832 8.5569 15.1986 8.54004 15.1131 8.54004C15.0276 8.54004 14.943 8.5569 14.8641 8.58966C14.7851 8.62242 14.7134 8.67043 14.653 8.73094L7.52175 15.8622C7.46228 15.9376 7.41742 16.0234 7.38947 16.1153L6.37154 19.1748C6.32707 19.2867 6.31428 19.4087 6.33457 19.5274C6.35486 19.6461 6.40745 19.7569 6.48656 19.8477C6.61003 19.9674 6.77466 20.0353 6.94664 20.0375C7.02513 20.0381 7.10306 20.0244 7.17669 19.9972L10.2305 18.9793C10.3268 18.9473 10.4138 18.892 10.4835 18.8183Z" stroke="white" stroke-miterlimit="16" stroke-linecap="round" stroke-linejoin="round" stroke-dasharray="2 2"/>
</g>
</svg>
