<svg width="21" height="20" viewBox="0 0 21 20" fill="none" xmlns="http://www.w3.org/2000/svg">
<g id="ill_wall_flex_multisig_20">
<rect x="0.400391" width="20" height="20" rx="10" fill="url(#paint0_linear_8621_1014)"/>
<path id="Union" fill-rule="evenodd" clip-rule="evenodd" d="M14.4873 11.5206L16.2314 9.78048C16.5359 9.473 16.7279 9.07189 16.7765 8.64189C16.825 8.21188 16.7273 7.77805 16.4991 7.41039L16.5739 7.33952C16.6153 7.2982 16.6482 7.24911 16.6706 7.19506C16.693 7.14102 16.7046 7.08308 16.7046 7.02456C16.7046 6.96605 16.693 6.90811 16.6706 6.85406C16.6482 6.80002 16.6153 6.75093 16.5739 6.7096L15.1802 5.31196C15.1388 5.27053 15.0898 5.23767 15.0357 5.21524C14.9817 5.19282 14.9237 5.18127 14.8652 5.18127C14.8067 5.18127 14.7488 5.19282 14.6947 5.21524C14.6407 5.23767 14.5916 5.27053 14.5502 5.31196L9.66834 10.1939C9.62763 10.2455 9.59692 10.3042 9.57779 10.3671L8.88094 12.4616C8.8505 12.5382 8.84174 12.6217 8.85563 12.703C8.86952 12.7842 8.90552 12.8601 8.95968 12.9222C9.0442 13.0042 9.15691 13.0507 9.27464 13.0521C9.32837 13.0525 9.38172 13.0432 9.43212 13.0246L11.5227 12.3277C11.5886 12.3058 11.6481 12.268 11.6959 12.2175L15.8416 8.07575C15.9058 8.25947 15.9173 8.45749 15.8749 8.64742C15.8324 8.83735 15.7377 9.01163 15.6014 9.15055L13.8573 10.8907C13.816 10.9321 13.7832 10.9812 13.7608 11.0352C13.7384 11.0893 13.7269 11.1472 13.7269 11.2057C13.7269 11.2642 13.7384 11.3221 13.7608 11.3761C13.7832 11.4302 13.816 11.4793 13.8573 11.5206C13.8987 11.562 13.9478 11.5948 14.0018 11.6172C14.0559 11.6396 14.1138 11.6511 14.1723 11.6511C14.2308 11.6511 14.2887 11.6396 14.3427 11.6172C14.3968 11.5948 14.4459 11.562 14.4873 11.5206ZM16.4636 14.4247C16.4636 14.2072 16.2874 14.031 16.0699 14.031H4.40542C4.18799 14.031 4.01172 14.2072 4.01172 14.4247C4.01172 14.6421 4.18799 14.8184 4.40542 14.8184H16.0699C16.2874 14.8184 16.4636 14.6421 16.4636 14.4247Z" fill="white"/>
<path id="Vector" d="M6.95248 11.7613L10.0485 8.66889L11.3376 7.37253L11.4059 7.30783C11.4438 7.2701 11.4738 7.22528 11.4942 7.17594C11.5147 7.1266 11.5252 7.0737 11.5252 7.02028C11.5252 6.96686 11.5147 6.91396 11.4942 6.86462C11.4738 6.81527 11.4438 6.77045 11.4059 6.73273L10.1335 5.45671C10.0958 5.41889 10.051 5.38889 10.0016 5.36841C9.95228 5.34794 9.89939 5.3374 9.84596 5.3374C9.79254 5.3374 9.73965 5.34794 9.6903 5.36841C9.64096 5.38889 9.59614 5.41889 9.55841 5.45671L5.10136 9.91377C5.06419 9.96088 5.03615 10.0145 5.01869 10.0719L4.38248 11.9841C4.35469 12.0541 4.34669 12.1303 4.35937 12.2045C4.37206 12.2787 4.40492 12.3479 4.45437 12.4047C4.53154 12.4795 4.63443 12.522 4.74192 12.5233C4.79097 12.5237 4.83968 12.5151 4.8857 12.4981L6.79432 11.8619C6.85453 11.8419 6.90887 11.8074 6.95248 11.7613Z" stroke="white" stroke-width="0.624458" stroke-miterlimit="16" stroke-linecap="round" stroke-linejoin="round" stroke-dasharray="1.25 1.25"/>
</g>
<defs>
<linearGradient id="paint0_linear_8621_1014" x1="17.2064" y1="2.24788" x2="3.6632" y2="17.7258" gradientUnits="userSpaceOnUse">
<stop stop-color="#8707D5"/>
<stop offset="1" stop-color="#FF6928"/>
</linearGradient>
</defs>
</svg>
