<svg xmlns="http://www.w3.org/2000/svg" width="232" height="85" fill="none" viewBox="0 0 232 85">
  <path
    fill="#fff"
    d="M98.0026 18.535v10.4693h-2.9294V14h3.4562l6.5966 9.947V14h2.952v15.0043h-3.141L98.0026 18.535Zm11.8564 4.8899c0-3.2591 2.445-5.7889 5.713-5.7889 3.267 0 5.712 2.5274 5.712 5.7889 0 3.2614-2.445 5.7888-5.712 5.7888-3.268 0-5.713-2.5495-5.713-5.7888Zm8.411 0c0-2.0693-1.242-3.1975-2.698-3.1975s-2.699 1.1282-2.699 3.1975c0 2.0692 1.245 3.2171 2.699 3.2171 1.453 0 2.698-1.1504 2.698-3.2171Zm10.083 5.5799h-3.203l-4.152-11.159h3.161l2.675 7.8581 2.699-7.8581h2.952l-4.132 11.159Zm11.335-1.38c-.738 1.0445-1.854 1.5889-3.394 1.5889-2.341 0-3.898-1.3573-3.898-3.4487s1.771-3.3428 5.058-3.3428c.631 0 1.18.0419 1.876.1256v-.6675c0-1.2539-.715-1.9855-1.938-1.9855-1.222 0-2.022.7316-2.129 1.9855h-2.634c.169-2.5693 2.045-4.2419 4.763-4.2419 2.952 0 4.679 1.6085 4.679 4.3453v7.0206h-2.383v-1.3795Zm-2.76-.4188c1.495 0 2.402-.8153 2.402-2.1111v-.7932c-.696-.1034-1.18-.1453-1.687-.1453-1.665 0-2.487.5222-2.487 1.5248 0 .941.673 1.5248 1.772 1.5248Zm-29.705 39.9288c-7.8462 0-12.7459-4.168-13.223-10.7032h6.676c.174 3.3969 2.386 5.5868 6.416 5.5868 3.339 0 5.722-1.4607 5.722-3.9536 0-1.9338-1.518-3.094-4.162-3.6113l-5.116-.9878c-4.7257-.9016-8.3682-3.4389-8.3682-8.5528 0-5.5006 4.9002-9.4568 11.6182-9.4568 6.719 0 12.095 4.0399 12.53 10.4865h-6.676c-.216-3.2245-2.472-5.4144-5.767-5.4144-3.295 0-5.029 1.8056-5.029 3.9536 0 2.1481 1.95 3.0078 4.204 3.4389l5.332 1.074c5.461 1.074 8.411 3.5669 8.411 8.1241 0 5.8874-4.768 10.016-12.573 10.016h.005Zm29.133-.0001c-2.731 0-5.074-1.1602-6.805-3.3945v11.26h-6.026V43.7526h5.549v3.3526c1.776-2.451 4.335-3.7812 7.282-3.7812 6.242 0 10.274 5.1582 10.274 11.9054 0 6.7471-4.032 11.9053-10.274 11.9053Zm-1.344-18.5244c-2.949 0-5.419 2.2786-5.419 6.6191 0 4.3404 2.472 6.5771 5.419 6.5771 2.947 0 5.419-2.1924 5.419-6.5771 0-4.3848-2.472-6.6191-5.419-6.6191Zm13.425 6.5328c0-6.8333 4.812-11.8191 11.489-11.8191 7.327 0 12.182 5.8874 11.098 13.3661h-16.431c.391 3.7394 2.212 5.8037 5.29 5.8037 2.644 0 4.423-1.2883 5.116-3.5669h5.983c-1.302 5.2001-5.332 8.166-10.967 8.166-6.937 0-11.576-4.7715-11.576-11.9498h-.002Zm6.243-2.2342h9.971c-.174-3.1802-1.995-5.2002-4.855-5.2002-2.859 0-4.596 1.8057-5.116 5.2002Zm19.617 13.7942V35.8422h6.025V53.465l8.453-9.713h6.937l-9.581 11.0038 10.709 11.9498h-7.672l-8.843-10.659v10.659h-6.026l-.002-.0025Zm39.655-.6003c-1.474.7316-2.863 1.0321-4.639 1.0321-4.768 0-7.76-2.7072-7.76-7.8655V48.8667h-4.681v-5.1139h4.681v-6.7915h5.983v6.7915h6.634v5.1139h-6.634v9.0257c0 2.6654 1.215 3.7394 3.382 3.7394 1.128 0 2.166-.2587 3.034-.7316v5.2026Zm9.509.6014h-6.025V43.7531h5.548v4.4266c1.689-2.9215 5.29-4.6853 9.017-4.6853v6.1905c-5.116-.3868-8.54.8178-8.54 5.8874v11.1319Z"/>

  <path fill="#fff"
        d="M31.76 53.2461a.2173.2173 0 0 0-.0363-.0114c-1.0497-.3476-1.2809-1.7311-.4013-2.4012l20.0664-15.2959a.2294.2294 0 0 1 .2312-.0273h.0046c.1496.0681.1813.2681.0612.3794L33.1203 52.9553c-.3673.3362-.8865.4498-1.358.2931l-.0023-.0023ZM7.5426 43.1639c.0158.0136.0317.0296.0476.0432.5282.4907 1.2673.6792 1.9656.5089l37.6683-9.2212c.3672-.0909.3944-.6043.0385-.7315l-.0136-.0045c-.0589-.0228-.1247-.0273-.1882-.0182L8.6875 39.4609c-1.7797.2658-2.4667 2.4763-1.1472 3.7053l.0023-.0023Zm44.6646-17.0315L39.67.8929a1.6074 1.6074 0 0 0-1.3557-.8905h-.0409c-1.2922-.0682-2.1242 1.3471-1.4441 2.449l14.8043 23.9922c.034.0568.0862.1.1451.1272l.0091.0046c.2766.1204.5532-.1704.4194-.443Zm-3.904-1.8174L28.2346 1.0656a1.8867 1.8867 0 0 0-1.6527-.6407c-.0159 0-.0318.0046-.0499.0068-1.5824.1863-2.2331 2.1378-1.0837 3.2441l22.1249 21.3139a.5012.5012 0 0 0 .195.1158l.0181.0046c.4738.1476.8434-.418.5192-.7951h-.0023Zm1.7525 10.5228h-.0068a.2621.2621 0 0 0-.2108 0L21.3539 46.8715c-1.4419.6088-1.3421 2.6875.1519 3.1577.0159.0046.034.0114.0499.0159a1.6744 1.6744 0 0 0 1.2922-.1226l27.2305-14.5871c.204-.1091.1882-.4067-.025-.4953l.0023-.0023Zm-9.9663-12.9559-25.1401-17.47c-.6938-.4816-1.5984-.5293-2.3442-.1295-.0159.009-.0318.016-.0477.025-1.5507.836-1.5665 3.06-.034 3.9279l26.6274 15.0801a.8564.8564 0 0 0 .331.1045c.0136 0 .025.0023.0386.0045.8705.0864 1.2877-1.0427.569-1.5425Zm14.165 5.3955L48.9335 2.3241a1.4052 1.4052 0 0 0-1.0814-1.0813.7301.7301 0 0 1-.0318-.0068c-1.0474-.2227-1.9474.7678-1.6278 1.7947l7.5881 24.3671a.2451.2451 0 0 0 .1292.1476h.0046c.1813.0886.3831-.0727.34-.268Zm-1.7321 8.8281L38.3755 54.0298c-.5487.6975-.229 1.7289.6166 1.9901.5373.1659 1.12-.0454 1.4283-.5179l12.4443-19.1512c.068-.1067.0294-.2476-.0839-.3021h-.0045c-.0885-.0432-.195-.0204-.254.0568Zm-2.2421 46.133a.4953.4953 0 0 1 .0544-.0181 2.1767 2.1767 0 0 0 1.4691-1.9015l3.2034-42.9707a.2248.2248 0 0 0-.1133-.2113h-.0046a.2189.2189 0 0 0-.3242.1545l-7.1301 42.5209c-.272 1.6266 1.2855 2.9578 2.8453 2.4285v-.0023Zm5.5703-44.0793 3.0243 35.6306c.1383 1.6334 2.1493 2.3263 3.2579 1.1222.0113-.0113.0227-.0249.034-.0363.399-.4362.5736-1.0314.4693-1.613l-6.2686-35.1648a.2642.2642 0 0 0-.1202-.1772h-.0045c-.1814-.1136-.4081.0295-.3922.2408v-.0023ZM55.651 3.4941c-.8502-.3112-1.7434.3453-1.6958 1.2517l1.1879 23.2631c.0046.0749.0477.1431.1157.1749h.0045c.1315.0659.2857-.0273.2925-.1749l.9476-23.2653c.0227-.5475-.3106-1.0496-.8252-1.2381-.0091-.0023-.0182-.0069-.0272-.0091V3.494Zm2.7953 35.8737s-.0045-.0046-.009-.0068c-.2789-.1977-.6462.0795-.5351.4021l7.4113 21.2547c.4783 1.3722 2.4802 1.1655 2.6661-.2771 0-.0136.0045-.0273.0045-.0409a1.3888 1.3888 0 0 0-.1133-.7474l-9.3111-20.446a.35.35 0 0 0-.1156-.1409l.0022.0023Zm-20.4177-8.6464-.0521-.0159a.6719.6719 0 0 0-.1633-.0341L2.6682 27.007c-1.562-.1635-2.8747 1.1904-2.6412 2.7466.0046.0295.0091.0568.0136.0863.1791 1.1655 1.1812 2.0242 2.3579 2.0378l35.3739.4157c.9205.0114 1.1336-1.288.2562-1.572Zm-8.5493-7.8377-24.528-9.1121c-1.2016-.4452-2.5347.1136-3.0766 1.2768a.4539.4539 0 0 1-.0226.0477c-.637 1.3767.127 2.9965 1.5892 3.3917l25.2671 6.8177a1.2625 1.2625 0 0 0 1.0792-.2022c.8184-.5998.6416-1.8674-.3083-2.2218v.0022Zm24.0474 13.7784L33.6326 81.5638c-.739 1.6675.5396 3.5281 2.3556 3.4327.0181 0 .0385 0 .0567-.0023a2.4423 2.4423 0 0 0 2.1809-1.6584l15.6886-46.5192a.2114.2114 0 0 0-.1021-.2522h-.0045a.2031.2031 0 0 0-.2834.0977h.0023ZM18.5313 60.5839 1.7478 73.3763c-1.7865 1.3608-1.5507 4.1097.4307 5.1661.0204.0113.0408.0227.0612.0318 1.1427.6088 2.546.4202 3.5005-.4567L21.2859 63.828c1.2877-1.1836.662-3.3349-1.0588-3.6348-.0181-.0023-.0362-.0068-.0521-.0091a2.1022 2.1022 0 0 0-1.6414.3976l-.0023.0022Zm13.9836.8769L18.087 79.7396c-1.3014 1.647-.3424 4.0892 1.7298 4.4095.0204.0023.0431.0068.0635.0091a2.7356 2.7356 0 0 0 2.7092-1.2131L35.265 63.4396c.6869-1.0587.0226-2.4717-1.2288-2.6149a1.6949 1.6949 0 0 0-1.5213.6339v.0022ZM57.6483 24.842c.4126-1.3562 4.0831-13.5466 5.1305-17.027.161-.5384-.0793-1.1154-.5758-1.3767a.1066.1066 0 0 0-.0227-.0113c-.6915-.3635-1.5371.0386-1.6913.8042l-3.5299 17.4336c-.0635.3113.2811.5452.5464.3703a.3536.3536 0 0 0 .1451-.1931h-.0023Zm10.3494 25.7143a.8644.8644 0 0 0-.1632-.5066l-6.5021-9.0235a.349.349 0 0 0-.1406-.1159l-.009-.0045c-.3129-.1386-.619.2044-.4444.4998l5.6519 9.5914c.4467.7588 1.6097.4407 1.6097-.4407h-.0023Z"/>
</svg>
